{
  "accessors": [
    {
      "bufferView": 2,
      "componentType": 5126,
      "count": 4,
      "max": [
        20.438934326171875,
        11.976552963256836,
        0.0
      ],
      "min": [
        -20.978927612304688,
        -11.756553649902344,
        0.0
      ],
      "type": "VEC3"
    },
    {
      "bufferView": 2,
      "byteOffset": 48,
      "componentType": 5126,
      "count": 4,
      "type": "VEC3"
    },
    {
      "bufferView": 3,
      "componentType": 5126,
      "count": 4,
      "type": "VEC4"
    },
    {
      "bufferView": 1,
      "componentType": 5126,
      "count": 4,
      "type": "VEC2"
    },
    {
      "bufferView": 0,
      "componentType": 5125,
      "count": 6,
      "type": "SCALAR"
    },
    {
      "bufferView": 2,
      "byteOffset": 96,
      "componentType": 5126,
      "count": 5535,
      "max": [
        9.000484466552734,
        1.4004570245742798,
        1.10042405128479
      ],
      "min": [
        -9.000077247619629,
        -4.727392196655273,
        0.0
      ],
      "type": "VEC3"
    },
    {
      "bufferView": 2,
      "byteOffset": 66516,
      "componentType": 5126,
      "count": 5535,
      "type": "VEC3"
    },
    {
      "bufferView": 1,
      "byteOffset": 32,
      "componentType": 5126,
      "count": 5535,
      "type": "VEC2"
    },
    {
      "bufferView": 0,
      "byteOffset": 24,
      "componentType": 5125,
      "count": 11892,
      "type": "SCALAR"
    },
    {
      "bufferView": 2,
      "byteOffset": 132936,
      "componentType": 5126,
      "count": 2906,
      "max": [
        5.9968109130859375,
        5.400993824005127,
        3.5186960697174072
      ],
      "min": [
        -5.998939037322998,
        3.277859926223755,
        0.0
      ],
      "type": "VEC3"
    },
    {
      "bufferView": 2,
      "byteOffset": 167808,
      "componentType": 5126,
      "count": 2906,
      "type": "VEC3"
    },
    {
      "bufferView": 3,
      "byteOffset": 64,
      "componentType": 5126,
      "count": 2906,
      "type": "VEC4"
    },
    {
      "bufferView": 1,
      "byteOffset": 44312,
      "componentType": 5126,
      "count": 2906,
      "type": "VEC2"
    },
    {
      "bufferView": 0,
      "byteOffset": 47592,
      "componentType": 5125,
      "count": 6894,
      "type": "SCALAR"
    },
    {
      "bufferView": 2,
      "byteOffset": 202680,
      "componentType": 5126,
      "count": 3727,
      "max": [
        8.850249290466309,
        1.1145329475402832,
        2.4974000453948975
      ],
      "min": [
        -8.750445365905762,
        -5.040243148803711,
        0.9980040192604065
      ],
      "type": "VEC3"
    },
    {
      "bufferView": 2,
      "byteOffset": 247404,
      "componentType": 5126,
      "count": 3727,
      "type": "VEC3"
    },
    {
      "bufferView": 1,
      "byteOffset": 67560,
      "componentType": 5126,
      "count": 3727,
      "type": "VEC2"
    },
    {
      "bufferView": 0,
      "byteOffset": 75168,
      "componentType": 5125,
      "count": 10740,
      "type": "SCALAR"
    }
  ],
  "asset": {
    "generator": "fab-model-conversion",
    "version": "2.0"
  },
  "bufferViews": [
    {
      "buffer": 0,
      "byteLength": 118128,
      "target": 34963
    },
    {
      "buffer": 0,
      "byteLength": 97376,
      "byteOffset": 118128,
      "byteStride": 8,
      "target": 34962
    },
    {
      "buffer": 0,
      "byteLength": 292128,
      "byteOffset": 215504,
      "byteStride": 12,
      "target": 34962
    },
    {
      "buffer": 0,
      "byteLength": 46560,
      "byteOffset": 507632,
      "byteStride": 16,
      "target": 34962
    }
  ],
  "buffers": [
    {
      "byteLength": 554192,
      "uri": "scene.bin"
    }
  ],
  "extensionsUsed": [
    "KHR_texture_transform"
  ],
  "images": [
    {
      "uri": "textures/Floor_baseColor.png"
    },
    {
      "uri": "textures/Floor_metallicRoughness.png"
    },
    {
      "uri": "textures/Floor_normal.png"
    },
    {
      "uri": "textures/Kitchen_Cabins_baseColor.png"
    },
    {
      "uri": "textures/Kitchen_Cabins_metallicRoughness.png"
    },
    {
      "uri": "textures/Kitchen_Cabins_Double_baseColor.png"
    },
    {
      "uri": "textures/Kitchen_Cabins_Double_metallicRoughness.png"
    },
    {
      "uri": "textures/Kitchen_Cabins_Double_emissive.png"
    },
    {
      "uri": "textures/Kitchen_Cabins_Double_normal.png"
    },
    {
      "uri": "textures/Kitchen_Utensils_baseColor.png"
    },
    {
      "uri": "textures/Kitchen_Utensils_metallicRoughness.png"
    }
  ],
  "materials": [
    {
      "doubleSided": true,
      "name": "Floor",
      "normalTexture": {
        "extensions": {
          "KHR_texture_transform": {
            "scale": [
              13.999999999999996,
              13.999999999999996
            ]
          }
        },
        "index": 2
      },
      "pbrMetallicRoughness": {
        "baseColorTexture": {
          "extensions": {
            "KHR_texture_transform": {
              "scale": [
                13.999999999999996,
                13.999999999999996
              ]
            }
          },
          "index": 0
        },
        "metallicFactor": 0.0,
        "metallicRoughnessTexture": {
          "index": 1
        }
      }
    },
    {
      "doubleSided": true,
      "name": "Kitchen_Cabins",
      "pbrMetallicRoughness": {
        "baseColorTexture": {
          "index": 3
        },
        "metallicRoughnessTexture": {
          "index": 4
        }
      }
    },
    {
      "doubleSided": true,
      "emissiveFactor": [
        1.0,
        1.0,
        1.0
      ],
      "emissiveTexture": {
        "index": 7
      },
      "name": "Kitchen_Cabins_Double",
      "normalTexture": {
        "index": 8
      },
      "pbrMetallicRoughness": {
        "baseColorTexture": {
          "index": 5
        },
        "metallicRoughnessTexture": {
          "index": 6
        }
      }
    },
    {
      "doubleSided": true,
      "name": "Kitchen_Utensils",
      "pbrMetallicRoughness": {
        "baseColorTexture": {
          "index": 9
        },
        "metallicRoughnessTexture": {
          "index": 10
        }
      }
    }
  ],
  "meshes": [
    {
      "name": "Object_0",
      "primitives": [
        {
          "attributes": {
            "NORMAL": 1,
            "POSITION": 0,
            "TANGENT": 2,
            "TEXCOORD_0": 3
          },
          "indices": 4,
          "material": 0,
          "mode": 4
        }
      ]
    },
    {
      "name": "Object_1",
      "primitives": [
        {
          "attributes": {
            "NORMAL": 6,
            "POSITION": 5,
            "TEXCOORD_0": 7
          },
          "indices": 8,
          "material": 1,
          "mode": 4
        }
      ]
    },
    {
      "name": "Object_2",
      "primitives": [
        {
          "attributes": {
            "NORMAL": 10,
            "POSITION": 9,
            "TANGENT": 11,
            "TEXCOORD_0": 12
          },
          "indices": 13,
          "material": 2,
          "mode": 4
        }
      ]
    },
    {
      "name": "Object_3",
      "primitives": [
        {
          "attributes": {
            "NORMAL": 15,
            "POSITION": 14,
            "TEXCOORD_0": 16
          },
          "indices": 17,
          "material": 3,
          "mode": 4
        }
      ]
    }
  ],
  "nodes": [
    {
      "children": [
        1
      ],
      "matrix": [
        1.0,
        0.0,
        0.0,
        0.0,
        0.0,
        2.220446049250313e-16,
        -1.0,
        0.0,
        0.0,
        1.0,
        2.220446049250313e-16,
        0.0,
        0.0,
        0.0,
        0.0,
        1.0
      ],
      "name": "Sketchfab_model"
    },
    {
      "children": [
        2,
        3,
        4,
        5
      ],
      "name": "overcooked_assets.obj.cleaner.materialmerger.gles"
    },
    {
      "mesh": 0,
      "name": "Object_2"
    },
    {
      "mesh": 1,
      "name": "Object_3"
    },
    {
      "mesh": 2,
      "name": "Object_4"
    },
    {
      "mesh": 3,
      "name": "Object_5"
    }
  ],
  "samplers": [
    {
      "magFilter": 9729,
      "minFilter": 9987,
      "wrapS": 10497,
      "wrapT": 10497
    }
  ],
  "scene": 0,
  "scenes": [
    {
      "name": "Sketchfab_Scene",
      "nodes": [
        0
      ]
    }
  ],
  "textures": [
    {
      "sampler": 0,
      "source": 0
    },
    {
      "sampler": 0,
      "source": 1
    },
    {
      "sampler": 0,
      "source": 2
    },
    {
      "sampler": 0,
      "source": 3
    },
    {
      "sampler": 0,
      "source": 4
    },
    {
      "sampler": 0,
      "source": 5
    },
    {
      "sampler": 0,
      "source": 6
    },
    {
      "sampler": 0,
      "source": 7
    },
    {
      "sampler": 0,
      "source": 8
    },
    {
      "sampler": 0,
      "source": 9
    },
    {
      "sampler": 0,
      "source": 10
    }
  ]
}
