{
	"asset":{
		"generator":"Khronos glTF Blender I/O v4.4.55",
		"version":"2.0"
	},
	"extensionsUsed":[
		"KHR_texture_transform"
	],
	"extensionsRequired":[
		"KHR_texture_transform"
	],
	"scene":0,
	"scenes":[
		{
			"name":"Scene",
			"nodes":[
				0,
				1,
				2,
				3,
				4,
				5,
				6,
				7,
				8,
				9,
				10,
				11,
				12,
				13,
				14,
				15,
				16,
				17
			]
		}
	],
	"nodes":[
		{
			"mesh":0,
			"name":"Object_2",
			"rotation":[
				-0.70710688829422,
				0,
				0,
				0.7071066498756409
			]
		},
		{
			"mesh":1,
			"name":"Object_3",
			"rotation":[
				-0.70710688829422,
				0,
				0,
				0.7071066498756409
			]
		},
		{
			"mesh":2,
			"name":"Object_3.001",
			"rotation":[
				-0.70710688829422,
				0,
				0,
				0.7071066498756409
			]
		},
		{
			"mesh":3,
			"name":"Object_3.002",
			"rotation":[
				-0.70710688829422,
				0,
				0,
				0.7071066498756409
			]
		},
		{
			"mesh":4,
			"name":"Object_3.003",
			"rotation":[
				-0.70710688829422,
				0,
				0,
				0.7071066498756409
			]
		},
		{
			"mesh":5,
			"name":"Object_3.004",
			"rotation":[
				-0.70710688829422,
				0,
				0,
				0.7071066498756409
			]
		},
		{
			"mesh":6,
			"name":"Object_3.005",
			"rotation":[
				-0.70710688829422,
				0,
				0,
				0.7071066498756409
			]
		},
		{
			"mesh":7,
			"name":"Object_3.006",
			"rotation":[
				-0.70710688829422,
				0,
				0,
				0.7071066498756409
			]
		},
		{
			"mesh":8,
			"name":"Object_3.007",
			"rotation":[
				-0.70710688829422,
				0,
				0,
				0.7071066498756409
			]
		},
		{
			"mesh":9,
			"name":"Object_3.008",
			"rotation":[
				-0.70710688829422,
				0,
				0,
				0.7071066498756409
			]
		},
		{
			"mesh":10,
			"name":"Object_3.009",
			"rotation":[
				-0.70710688829422,
				0,
				0,
				0.7071066498756409
			]
		},
		{
			"mesh":11,
			"name":"Object_4",
			"rotation":[
				-0.70710688829422,
				0,
				0,
				0.7071066498756409
			]
		},
		{
			"mesh":12,
			"name":"Object_4.001",
			"rotation":[
				-0.70710688829422,
				0,
				0,
				0.7071066498756409
			]
		},
		{
			"mesh":13,
			"name":"Object_5",
			"rotation":[
				-0.70710688829422,
				0,
				0,
				0.7071066498756409
			]
		},
		{
			"mesh":14,
			"name":"Object_5.001",
			"rotation":[
				-0.70710688829422,
				0,
				0,
				0.7071066498756409
			]
		},
		{
			"mesh":15,
			"name":"Object_5.002",
			"rotation":[
				-0.70710688829422,
				0,
				0,
				0.7071066498756409
			]
		},
		{
			"mesh":16,
			"name":"Object_5.003",
			"rotation":[
				-0.70710688829422,
				0,
				0,
				0.7071066498756409
			]
		},
		{
			"mesh":17,
			"name":"Object_5.004",
			"rotation":[
				-0.70710688829422,
				0,
				0,
				0.7071066498756409
			]
		}
	],
	"materials":[
		{
			"doubleSided":true,
			"name":"Floor",
			"normalTexture":{
				"extensions":{
					"KHR_texture_transform":{
						"scale":[
							14,
							14
						]
					}
				},
				"index":0
			},
			"pbrMetallicRoughness":{
				"baseColorTexture":{
					"extensions":{
						"KHR_texture_transform":{
							"scale":[
								14,
								14
							]
						}
					},
					"index":1
				},
				"metallicFactor":0,
				"metallicRoughnessTexture":{
					"index":2
				}
			}
		},
		{
			"doubleSided":true,
			"name":"Kitchen_Cabins",
			"pbrMetallicRoughness":{
				"baseColorTexture":{
					"index":3
				},
				"metallicRoughnessTexture":{
					"index":4
				}
			}
		},
		{
			"doubleSided":true,
			"emissiveFactor":[
				1,
				1,
				1
			],
			"emissiveTexture":{
				"index":5
			},
			"name":"Kitchen_Cabins_Double",
			"normalTexture":{
				"index":6
			},
			"pbrMetallicRoughness":{
				"baseColorTexture":{
					"index":7
				},
				"metallicRoughnessTexture":{
					"index":8
				}
			}
		},
		{
			"doubleSided":true,
			"name":"Kitchen_Utensils",
			"pbrMetallicRoughness":{
				"baseColorTexture":{
					"index":9
				},
				"metallicRoughnessTexture":{
					"index":10
				}
			}
		}
	],
	"meshes":[
		{
			"name":"Object_0",
			"primitives":[
				{
					"attributes":{
						"POSITION":0,
						"NORMAL":1,
						"TEXCOORD_0":2
					},
					"indices":3,
					"material":0
				}
			]
		},
		{
			"name":"Object_1",
			"primitives":[
				{
					"attributes":{
						"POSITION":4,
						"NORMAL":5,
						"TEXCOORD_0":6
					},
					"indices":7,
					"material":1
				}
			]
		},
		{
			"name":"Object_1.001",
			"primitives":[
				{
					"attributes":{
						"POSITION":8,
						"NORMAL":9,
						"TEXCOORD_0":10
					},
					"indices":11,
					"material":1
				}
			]
		},
		{
			"name":"Object_1.002",
			"primitives":[
				{
					"attributes":{
						"POSITION":12,
						"NORMAL":13,
						"TEXCOORD_0":14
					},
					"indices":15,
					"material":1
				}
			]
		},
		{
			"name":"Object_1.003",
			"primitives":[
				{
					"attributes":{
						"POSITION":16,
						"NORMAL":17,
						"TEXCOORD_0":18
					},
					"indices":11,
					"material":1
				}
			]
		},
		{
			"name":"Object_1.004",
			"primitives":[
				{
					"attributes":{
						"POSITION":19,
						"NORMAL":20,
						"TEXCOORD_0":21
					},
					"indices":22,
					"material":1
				}
			]
		},
		{
			"name":"Object_1.005",
			"primitives":[
				{
					"attributes":{
						"POSITION":23,
						"NORMAL":24,
						"TEXCOORD_0":25
					},
					"indices":11,
					"material":1
				}
			]
		},
		{
			"name":"Object_1.006",
			"primitives":[
				{
					"attributes":{
						"POSITION":26,
						"NORMAL":27,
						"TEXCOORD_0":28
					},
					"indices":29,
					"material":1
				}
			]
		},
		{
			"name":"Object_1.007",
			"primitives":[
				{
					"attributes":{
						"POSITION":30,
						"NORMAL":31,
						"TEXCOORD_0":32
					},
					"indices":33,
					"material":1
				}
			]
		},
		{
			"name":"Object_1.008",
			"primitives":[
				{
					"attributes":{
						"POSITION":34,
						"NORMAL":35,
						"TEXCOORD_0":36
					},
					"indices":15,
					"material":1
				}
			]
		},
		{
			"name":"Object_1.009",
			"primitives":[
				{
					"attributes":{
						"POSITION":37,
						"NORMAL":38,
						"TEXCOORD_0":39
					},
					"indices":40,
					"material":1
				}
			]
		},
		{
			"name":"Object_2",
			"primitives":[
				{
					"attributes":{
						"POSITION":41,
						"NORMAL":42,
						"TEXCOORD_0":43
					},
					"indices":44,
					"material":2
				}
			]
		},
		{
			"name":"Object_2.001",
			"primitives":[
				{
					"attributes":{
						"POSITION":45,
						"NORMAL":46,
						"TEXCOORD_0":47
					},
					"indices":48,
					"material":2
				}
			]
		},
		{
			"name":"Object_3",
			"primitives":[
				{
					"attributes":{
						"POSITION":49,
						"NORMAL":50,
						"TEXCOORD_0":51
					},
					"indices":52,
					"material":3
				}
			]
		},
		{
			"name":"Object_3.001",
			"primitives":[
				{
					"attributes":{
						"POSITION":53,
						"NORMAL":54,
						"TEXCOORD_0":55
					},
					"indices":56,
					"material":3
				}
			]
		},
		{
			"name":"Object_3.002",
			"primitives":[
				{
					"attributes":{
						"POSITION":57,
						"NORMAL":58,
						"TEXCOORD_0":59
					},
					"indices":60,
					"material":3
				}
			]
		},
		{
			"name":"Object_3.003",
			"primitives":[
				{
					"attributes":{
						"POSITION":61,
						"NORMAL":62,
						"TEXCOORD_0":63
					},
					"indices":64,
					"material":3
				}
			]
		},
		{
			"name":"Object_3.004",
			"primitives":[
				{
					"attributes":{
						"POSITION":65,
						"NORMAL":66,
						"TEXCOORD_0":67
					},
					"indices":68,
					"material":3
				}
			]
		}
	],
	"textures":[
		{
			"sampler":0,
			"source":0
		},
		{
			"sampler":0,
			"source":1
		},
		{
			"sampler":0,
			"source":2
		},
		{
			"sampler":0,
			"source":3
		},
		{
			"sampler":0,
			"source":4
		},
		{
			"sampler":0,
			"source":5
		},
		{
			"sampler":0,
			"source":6
		},
		{
			"sampler":0,
			"source":7
		},
		{
			"sampler":0,
			"source":8
		},
		{
			"sampler":0,
			"source":9
		},
		{
			"sampler":0,
			"source":10
		}
	],
	"images":[
		{
			"mimeType":"image/png",
			"name":"Floor_normal",
			"uri":"Floor_normal.png"
		},
		{
			"mimeType":"image/png",
			"name":"Floor_baseColor",
			"uri":"Floor_baseColor.png"
		},
		{
			"mimeType":"image/png",
			"name":"Floor_metallicRoughness",
			"uri":"Floor_metallicRoughness.png"
		},
		{
			"mimeType":"image/png",
			"name":"Kitchen_Cabins_baseColor",
			"uri":"Kitchen_Cabins_baseColor.png"
		},
		{
			"mimeType":"image/png",
			"name":"Kitchen_Cabins_metallicRoughness",
			"uri":"Kitchen_Cabins_metallicRoughness.png"
		},
		{
			"mimeType":"image/png",
			"name":"Kitchen_Cabins_Double_emissive",
			"uri":"Kitchen_Cabins_Double_emissive.png"
		},
		{
			"mimeType":"image/png",
			"name":"Kitchen_Cabins_Double_normal",
			"uri":"Kitchen_Cabins_Double_normal.png"
		},
		{
			"mimeType":"image/png",
			"name":"Kitchen_Cabins_Double_baseColor",
			"uri":"Kitchen_Cabins_Double_baseColor.png"
		},
		{
			"mimeType":"image/png",
			"name":"Kitchen_Cabins_Double_metallicRoughness",
			"uri":"Kitchen_Cabins_Double_metallicRoughness.png"
		},
		{
			"mimeType":"image/png",
			"name":"Kitchen_Utensils_baseColor",
			"uri":"Kitchen_Utensils_baseColor.png"
		},
		{
			"mimeType":"image/png",
			"name":"Kitchen_Utensils_metallicRoughness",
			"uri":"Kitchen_Utensils_metallicRoughness.png"
		}
	],
	"accessors":[
		{
			"bufferView":0,
			"componentType":5126,
			"count":4,
			"max":[
				20.438934326171875,
				11.976552963256836,
				0
			],
			"min":[
				-20.978927612304688,
				-11.756553649902344,
				0
			],
			"type":"VEC3"
		},
		{
			"bufferView":1,
			"componentType":5126,
			"count":4,
			"type":"VEC3"
		},
		{
			"bufferView":2,
			"componentType":5126,
			"count":4,
			"type":"VEC2"
		},
		{
			"bufferView":3,
			"componentType":5123,
			"count":6,
			"type":"SCALAR"
		},
		{
			"bufferView":4,
			"componentType":5126,
			"count":1071,
			"max":[
				9.000484466552734,
				-2.6005699634552,
				1.10042405128479
			],
			"min":[
				7.000483989715576,
				-4.727392196655273,
				0
			],
			"type":"VEC3"
		},
		{
			"bufferView":5,
			"componentType":5126,
			"count":1071,
			"type":"VEC3"
		},
		{
			"bufferView":6,
			"componentType":5126,
			"count":1071,
			"type":"VEC2"
		},
		{
			"bufferView":7,
			"componentType":5123,
			"count":2592,
			"type":"SCALAR"
		},
		{
			"bufferView":8,
			"componentType":5126,
			"count":252,
			"max":[
				-6.999189853668213,
				1.4004570245742798,
				1
			],
			"min":[
				-8.998948097229004,
				-0.5993009805679321,
				0
			],
			"type":"VEC3"
		},
		{
			"bufferView":9,
			"componentType":5126,
			"count":252,
			"type":"VEC3"
		},
		{
			"bufferView":10,
			"componentType":5126,
			"count":252,
			"type":"VEC2"
		},
		{
			"bufferView":11,
			"componentType":5123,
			"count":372,
			"type":"SCALAR"
		},
		{
			"bufferView":12,
			"componentType":5126,
			"count":326,
			"max":[
				-7.000319004058838,
				-2.599910020828247,
				1
			],
			"min":[
				-9.000077247619629,
				-4.722282886505127,
				0
			],
			"type":"VEC3"
		},
		{
			"bufferView":13,
			"componentType":5126,
			"count":326,
			"type":"VEC3"
		},
		{
			"bufferView":14,
			"componentType":5126,
			"count":326,
			"type":"VEC2"
		},
		{
			"bufferView":15,
			"componentType":5123,
			"count":552,
			"type":"SCALAR"
		},
		{
			"bufferView":16,
			"componentType":5126,
			"count":252,
			"max":[
				-2.999190092086792,
				-2.5995430946350098,
				1
			],
			"min":[
				-4.998948097229004,
				-4.599300861358643,
				0
			],
			"type":"VEC3"
		},
		{
			"bufferView":17,
			"componentType":5126,
			"count":252,
			"type":"VEC3"
		},
		{
			"bufferView":18,
			"componentType":5126,
			"count":252,
			"type":"VEC2"
		},
		{
			"bufferView":19,
			"componentType":5126,
			"count":514,
			"max":[
				-3.0002059936523438,
				1.3997750282287598,
				0.8956549763679504
			],
			"min":[
				-5.000205993652344,
				-0.6002249717712402,
				0
			],
			"type":"VEC3"
		},
		{
			"bufferView":20,
			"componentType":5126,
			"count":514,
			"type":"VEC3"
		},
		{
			"bufferView":21,
			"componentType":5126,
			"count":514,
			"type":"VEC2"
		},
		{
			"bufferView":22,
			"componentType":5123,
			"count":1200,
			"type":"SCALAR"
		},
		{
			"bufferView":23,
			"componentType":5126,
			"count":252,
			"max":[
				1.0008100271224976,
				-2.5995430946350098,
				1
			],
			"min":[
				-0.9989479780197144,
				-4.599300861358643,
				0
			],
			"type":"VEC3"
		},
		{
			"bufferView":24,
			"componentType":5126,
			"count":252,
			"type":"VEC3"
		},
		{
			"bufferView":25,
			"componentType":5126,
			"count":252,
			"type":"VEC2"
		},
		{
			"bufferView":26,
			"componentType":5126,
			"count":448,
			"max":[
				0.9999849796295166,
				1.4001749753952026,
				0.9060540199279785
			],
			"min":[
				-1.0000150203704834,
				-0.5998250246047974,
				0
			],
			"type":"VEC3"
		},
		{
			"bufferView":27,
			"componentType":5126,
			"count":448,
			"type":"VEC3"
		},
		{
			"bufferView":28,
			"componentType":5126,
			"count":448,
			"type":"VEC2"
		},
		{
			"bufferView":29,
			"componentType":5123,
			"count":696,
			"type":"SCALAR"
		},
		{
			"bufferView":30,
			"componentType":5126,
			"count":1075,
			"max":[
				5.000483989715576,
				-2.6005699634552,
				1.10042405128479
			],
			"min":[
				3.000483989715576,
				-4.727392196655273,
				0
			],
			"type":"VEC3"
		},
		{
			"bufferView":31,
			"componentType":5126,
			"count":1075,
			"type":"VEC3"
		},
		{
			"bufferView":32,
			"componentType":5126,
			"count":1075,
			"type":"VEC2"
		},
		{
			"bufferView":33,
			"componentType":5123,
			"count":2592,
			"type":"SCALAR"
		},
		{
			"bufferView":34,
			"componentType":5126,
			"count":326,
			"max":[
				4.999680995941162,
				1.4000890254974365,
				1
			],
			"min":[
				2.99992299079895,
				-0.7222830057144165,
				0
			],
			"type":"VEC3"
		},
		{
			"bufferView":35,
			"componentType":5126,
			"count":326,
			"type":"VEC3"
		},
		{
			"bufferView":36,
			"componentType":5126,
			"count":326,
			"type":"VEC2"
		},
		{
			"bufferView":37,
			"componentType":5126,
			"count":1073,
			"max":[
				9.000484466552734,
				1.3994300365447998,
				1.10042405128479
			],
			"min":[
				7.000483989715576,
				-0.7273920178413391,
				0
			],
			"type":"VEC3"
		},
		{
			"bufferView":38,
			"componentType":5126,
			"count":1073,
			"type":"VEC3"
		},
		{
			"bufferView":39,
			"componentType":5126,
			"count":1073,
			"type":"VEC2"
		},
		{
			"bufferView":40,
			"componentType":5123,
			"count":2592,
			"type":"SCALAR"
		},
		{
			"bufferView":41,
			"componentType":5126,
			"count":1568,
			"max":[
				5.9968109130859375,
				5.400993824005127,
				3.5186960697174072
			],
			"min":[
				1.996811032295227,
				3.369079113006592,
				0
			],
			"type":"VEC3"
		},
		{
			"bufferView":42,
			"componentType":5126,
			"count":1568,
			"type":"VEC3"
		},
		{
			"bufferView":43,
			"componentType":5126,
			"count":1568,
			"type":"VEC2"
		},
		{
			"bufferView":44,
			"componentType":5123,
			"count":4164,
			"type":"SCALAR"
		},
		{
			"bufferView":45,
			"componentType":5126,
			"count":1379,
			"max":[
				-1.9991810321807861,
				5.400231838226318,
				2.2977490425109863
			],
			"min":[
				-5.998939037322998,
				3.277859926223755,
				0
			],
			"type":"VEC3"
		},
		{
			"bufferView":46,
			"componentType":5126,
			"count":1379,
			"type":"VEC3"
		},
		{
			"bufferView":47,
			"componentType":5126,
			"count":1379,
			"type":"VEC2"
		},
		{
			"bufferView":48,
			"componentType":5123,
			"count":2730,
			"type":"SCALAR"
		},
		{
			"bufferView":49,
			"componentType":5126,
			"count":643,
			"max":[
				8.624849319458008,
				-2.8832430839538574,
				1.3527849912643433
			],
			"min":[
				7.368864059448242,
				-5.040243148803711,
				1.0972310304641724
			],
			"type":"VEC3"
		},
		{
			"bufferView":50,
			"componentType":5126,
			"count":643,
			"type":"VEC3"
		},
		{
			"bufferView":51,
			"componentType":5126,
			"count":643,
			"type":"VEC2"
		},
		{
			"bufferView":52,
			"componentType":5123,
			"count":2124,
			"type":"SCALAR"
		},
		{
			"bufferView":53,
			"componentType":5126,
			"count":290,
			"max":[
				-7.249271869659424,
				-2.828835964202881,
				1.119428038597107
			],
			"min":[
				-8.750445365905762,
				-4.3300089836120605,
				1.0100209712982178
			],
			"type":"VEC3"
		},
		{
			"bufferView":54,
			"componentType":5126,
			"count":290,
			"type":"VEC3"
		},
		{
			"bufferView":55,
			"componentType":5126,
			"count":290,
			"type":"VEC2"
		},
		{
			"bufferView":56,
			"componentType":5123,
			"count":864,
			"type":"SCALAR"
		},
		{
			"bufferView":57,
			"componentType":5126,
			"count":1155,
			"max":[
				-7.467932224273682,
				0.7828940153121948,
				2.4974000453948975
			],
			"min":[
				-8.700462341308594,
				0.0111480001360178,
				1.0016560554504395
			],
			"type":"VEC3"
		},
		{
			"bufferView":58,
			"componentType":5126,
			"count":1155,
			"type":"VEC3"
		},
		{
			"bufferView":59,
			"componentType":5126,
			"count":1155,
			"type":"VEC2"
		},
		{
			"bufferView":60,
			"componentType":5123,
			"count":2976,
			"type":"SCALAR"
		},
		{
			"bufferView":61,
			"componentType":5126,
			"count":792,
			"max":[
				0.812611997127533,
				-2.911057949066162,
				1.1478339433670044
			],
			"min":[
				-0.7679650187492371,
				-4.3080339431762695,
				0.9980040192604065
			],
			"type":"VEC3"
		},
		{
			"bufferView":62,
			"componentType":5126,
			"count":792,
			"type":"VEC3"
		},
		{
			"bufferView":63,
			"componentType":5126,
			"count":792,
			"type":"VEC2"
		},
		{
			"bufferView":64,
			"componentType":5123,
			"count":2280,
			"type":"SCALAR"
		},
		{
			"bufferView":65,
			"componentType":5126,
			"count":1031,
			"max":[
				8.850249290466309,
				1.1145329475402832,
				1.7331429719924927
			],
			"min":[
				7.134538173675537,
				-0.14662699401378632,
				1.1094870567321777
			],
			"type":"VEC3"
		},
		{
			"bufferView":66,
			"componentType":5126,
			"count":1031,
			"type":"VEC3"
		},
		{
			"bufferView":67,
			"componentType":5126,
			"count":1031,
			"type":"VEC2"
		},
		{
			"bufferView":68,
			"componentType":5123,
			"count":2496,
			"type":"SCALAR"
		}
	],
	"bufferViews":[
		{
			"buffer":0,
			"byteLength":48,
			"byteOffset":0,
			"target":34962
		},
		{
			"buffer":0,
			"byteLength":48,
			"byteOffset":48,
			"target":34962
		},
		{
			"buffer":0,
			"byteLength":32,
			"byteOffset":96,
			"target":34962
		},
		{
			"buffer":0,
			"byteLength":12,
			"byteOffset":128,
			"target":34963
		},
		{
			"buffer":0,
			"byteLength":12852,
			"byteOffset":140,
			"target":34962
		},
		{
			"buffer":0,
			"byteLength":12852,
			"byteOffset":12992,
			"target":34962
		},
		{
			"buffer":0,
			"byteLength":8568,
			"byteOffset":25844,
			"target":34962
		},
		{
			"buffer":0,
			"byteLength":5184,
			"byteOffset":34412,
			"target":34963
		},
		{
			"buffer":0,
			"byteLength":3024,
			"byteOffset":39596,
			"target":34962
		},
		{
			"buffer":0,
			"byteLength":3024,
			"byteOffset":42620,
			"target":34962
		},
		{
			"buffer":0,
			"byteLength":2016,
			"byteOffset":45644,
			"target":34962
		},
		{
			"buffer":0,
			"byteLength":744,
			"byteOffset":47660,
			"target":34963
		},
		{
			"buffer":0,
			"byteLength":3912,
			"byteOffset":48404,
			"target":34962
		},
		{
			"buffer":0,
			"byteLength":3912,
			"byteOffset":52316,
			"target":34962
		},
		{
			"buffer":0,
			"byteLength":2608,
			"byteOffset":56228,
			"target":34962
		},
		{
			"buffer":0,
			"byteLength":1104,
			"byteOffset":58836,
			"target":34963
		},
		{
			"buffer":0,
			"byteLength":3024,
			"byteOffset":59940,
			"target":34962
		},
		{
			"buffer":0,
			"byteLength":3024,
			"byteOffset":62964,
			"target":34962
		},
		{
			"buffer":0,
			"byteLength":2016,
			"byteOffset":65988,
			"target":34962
		},
		{
			"buffer":0,
			"byteLength":6168,
			"byteOffset":68004,
			"target":34962
		},
		{
			"buffer":0,
			"byteLength":6168,
			"byteOffset":74172,
			"target":34962
		},
		{
			"buffer":0,
			"byteLength":4112,
			"byteOffset":80340,
			"target":34962
		},
		{
			"buffer":0,
			"byteLength":2400,
			"byteOffset":84452,
			"target":34963
		},
		{
			"buffer":0,
			"byteLength":3024,
			"byteOffset":86852,
			"target":34962
		},
		{
			"buffer":0,
			"byteLength":3024,
			"byteOffset":89876,
			"target":34962
		},
		{
			"buffer":0,
			"byteLength":2016,
			"byteOffset":92900,
			"target":34962
		},
		{
			"buffer":0,
			"byteLength":5376,
			"byteOffset":94916,
			"target":34962
		},
		{
			"buffer":0,
			"byteLength":5376,
			"byteOffset":100292,
			"target":34962
		},
		{
			"buffer":0,
			"byteLength":3584,
			"byteOffset":105668,
			"target":34962
		},
		{
			"buffer":0,
			"byteLength":1392,
			"byteOffset":109252,
			"target":34963
		},
		{
			"buffer":0,
			"byteLength":12900,
			"byteOffset":110644,
			"target":34962
		},
		{
			"buffer":0,
			"byteLength":12900,
			"byteOffset":123544,
			"target":34962
		},
		{
			"buffer":0,
			"byteLength":8600,
			"byteOffset":136444,
			"target":34962
		},
		{
			"buffer":0,
			"byteLength":5184,
			"byteOffset":145044,
			"target":34963
		},
		{
			"buffer":0,
			"byteLength":3912,
			"byteOffset":150228,
			"target":34962
		},
		{
			"buffer":0,
			"byteLength":3912,
			"byteOffset":154140,
			"target":34962
		},
		{
			"buffer":0,
			"byteLength":2608,
			"byteOffset":158052,
			"target":34962
		},
		{
			"buffer":0,
			"byteLength":12876,
			"byteOffset":160660,
			"target":34962
		},
		{
			"buffer":0,
			"byteLength":12876,
			"byteOffset":173536,
			"target":34962
		},
		{
			"buffer":0,
			"byteLength":8584,
			"byteOffset":186412,
			"target":34962
		},
		{
			"buffer":0,
			"byteLength":5184,
			"byteOffset":194996,
			"target":34963
		},
		{
			"buffer":0,
			"byteLength":18816,
			"byteOffset":200180,
			"target":34962
		},
		{
			"buffer":0,
			"byteLength":18816,
			"byteOffset":218996,
			"target":34962
		},
		{
			"buffer":0,
			"byteLength":12544,
			"byteOffset":237812,
			"target":34962
		},
		{
			"buffer":0,
			"byteLength":8328,
			"byteOffset":250356,
			"target":34963
		},
		{
			"buffer":0,
			"byteLength":16548,
			"byteOffset":258684,
			"target":34962
		},
		{
			"buffer":0,
			"byteLength":16548,
			"byteOffset":275232,
			"target":34962
		},
		{
			"buffer":0,
			"byteLength":11032,
			"byteOffset":291780,
			"target":34962
		},
		{
			"buffer":0,
			"byteLength":5460,
			"byteOffset":302812,
			"target":34963
		},
		{
			"buffer":0,
			"byteLength":7716,
			"byteOffset":308272,
			"target":34962
		},
		{
			"buffer":0,
			"byteLength":7716,
			"byteOffset":315988,
			"target":34962
		},
		{
			"buffer":0,
			"byteLength":5144,
			"byteOffset":323704,
			"target":34962
		},
		{
			"buffer":0,
			"byteLength":4248,
			"byteOffset":328848,
			"target":34963
		},
		{
			"buffer":0,
			"byteLength":3480,
			"byteOffset":333096,
			"target":34962
		},
		{
			"buffer":0,
			"byteLength":3480,
			"byteOffset":336576,
			"target":34962
		},
		{
			"buffer":0,
			"byteLength":2320,
			"byteOffset":340056,
			"target":34962
		},
		{
			"buffer":0,
			"byteLength":1728,
			"byteOffset":342376,
			"target":34963
		},
		{
			"buffer":0,
			"byteLength":13860,
			"byteOffset":344104,
			"target":34962
		},
		{
			"buffer":0,
			"byteLength":13860,
			"byteOffset":357964,
			"target":34962
		},
		{
			"buffer":0,
			"byteLength":9240,
			"byteOffset":371824,
			"target":34962
		},
		{
			"buffer":0,
			"byteLength":5952,
			"byteOffset":381064,
			"target":34963
		},
		{
			"buffer":0,
			"byteLength":9504,
			"byteOffset":387016,
			"target":34962
		},
		{
			"buffer":0,
			"byteLength":9504,
			"byteOffset":396520,
			"target":34962
		},
		{
			"buffer":0,
			"byteLength":6336,
			"byteOffset":406024,
			"target":34962
		},
		{
			"buffer":0,
			"byteLength":4560,
			"byteOffset":412360,
			"target":34963
		},
		{
			"buffer":0,
			"byteLength":12372,
			"byteOffset":416920,
			"target":34962
		},
		{
			"buffer":0,
			"byteLength":12372,
			"byteOffset":429292,
			"target":34962
		},
		{
			"buffer":0,
			"byteLength":8248,
			"byteOffset":441664,
			"target":34962
		},
		{
			"buffer":0,
			"byteLength":4992,
			"byteOffset":449912,
			"target":34963
		}
	],
	"samplers":[
		{
			"magFilter":9729,
			"minFilter":9987
		}
	],
	"buffers":[
		{
			"byteLength":454904,
			"uri":"overcooked_kitchen_assets.bin"
		}
	]
}
